<svg id="Capa_1" enable-background="new 0 0 511.621 511.621" height="512" viewBox="0 0 511.621 511.621" width="512" xmlns="http://www.w3.org/2000/svg"><g><circle cx="327.544" cy="184.19" fill="#8cbdf9" r="176.576"/><path d="m222.69 309.044c31.93 31.94 73.05 49.08 114.85 51.43-48.46 2.74-97.83-14.41-134.85-51.43-68.96-68.95-68.96-180.75 0-249.71 37.02-37.02 86.39-54.17 134.85-51.43-41.8 2.35-82.92 19.49-114.85 51.43-68.96 68.96-68.96 180.76 0 249.71z" fill="#73a2da"/><circle cx="327.544" cy="184.19" fill="#f5fcff" r="145.721"/><path d="m244.5 287.234c25.91 25.91 59.15 40.02 93.04 42.33-40.55 2.78-82.04-11.34-113.04-42.33-56.9-56.91-56.9-149.18 0-206.08 31-31 72.49-45.11 113.04-42.34-33.89 2.32-67.13 16.43-93.04 42.34-56.9 56.9-56.9 149.17 0 206.08z" fill="#d8ecfe"/><path d="m286.983 131.565h108.718v62.125h-108.718z" fill="#8cbdf9"/><path d="m286.98 131.564h20v62.13h-20z" fill="#73a2da"/><path d="m214.148 319.555-41.22 41.22-21.97-21.97 41.22-41.22c6.69 7.957 14.013 15.28 21.97 21.97z" fill="#497090"/><path d="m161.207 392.994-42.466-42.466c-6.065-6.065-6.065-15.899 0-21.964l.006-.006c6.065-6.065 15.899-6.065 21.964 0l42.466 42.466c6.065 6.065 6.065 15.899 0 21.964l-.006.006c-6.065 6.065-15.899 6.065-21.964 0z" fill="#8cbdf9"/><path d="m182.19 393.894c-6.09 5.15-15.24 4.85-20.98-.9l-42.47-42.47c-6.07-6.06-6.07-15.9 0-21.96l.01-.01c5.74-5.74 14.89-6.04 20.98-.9-.34.29-.66.58-.98.9l-.01.01c-6.07 6.06-6.07 15.9 0 21.96l42.47 42.47c.32.32.64.62.98.9z" fill="#73a2da"/><path d="m16.655 496.325-1.246-1.246c-10.251-10.251-10.251-26.872 0-37.123l105.38-105.38 38.369 38.369-105.38 105.38c-10.251 10.251-26.872 10.251-37.123 0z" fill="#5680a6"/><g fill="#497090"><path d="m36.65 496.324c2.53 2.53 5.45 4.44 8.57 5.72-9.51 3.91-20.84 2-28.57-5.72l-1.24-1.24c-10.25-10.26-10.25-26.88 0-37.13l105.38-105.38 10 10-95.38 95.38c-10.25 10.25-10.25 26.87 0 37.13z"/><circle cx="302.514" cy="240.283" r="15.531"/><circle cx="380.169" cy="240.283" r="15.531"/></g><g><g><path d="m327.544 337.339c-39.236 0-78.474-14.934-108.347-44.802-59.736-59.746-59.736-156.951-.001-216.688 28.941-28.94 67.42-44.879 108.348-44.879s79.403 15.938 108.34 44.88c24.719 24.709 39.889 56.093 43.867 90.758.473 4.115-2.48 7.834-6.596 8.307-4.106.467-7.834-2.479-8.307-6.596-3.588-31.265-17.271-59.571-39.57-81.861-26.104-26.109-60.813-40.487-97.734-40.487s-71.633 14.378-97.74 40.486c-53.888 53.888-53.888 141.576 0 195.474 53.898 53.888 141.588 53.887 195.473-.001 22.495-22.494 36.208-51.054 39.658-82.592.45-4.118 4.14-7.108 8.271-6.64 4.117.45 7.091 4.153 6.64 8.271-3.77 34.47-19.383 66.989-43.961 91.568-29.869 29.868-69.104 44.802-108.341 44.802z"/></g><g><path d="m457.705 54.03c-34.77-34.769-80.996-53.916-130.163-53.916-49.168 0-95.392 19.147-130.155 53.916-34.769 34.77-53.916 80.996-53.916 130.163 0 41.404 13.58 80.719 38.631 112.862l-31.143 31.143-4.944-4.944c-8.98-8.979-23.591-8.98-32.571 0-6.772 7.023-8.179 21.099-2.935 28.996l-36.991 36.991c-2.929 2.93-2.929 7.678 0 10.607 2.93 2.928 7.678 2.929 10.607-.001l36.664-36.665 27.764 27.764-100.076 100.074c-16.891 16.896-45.268-10.26-27.763-27.763l40.3-40.3c2.929-2.93 2.929-7.678 0-10.607-2.93-2.928-7.678-2.928-10.607 0l-40.3 40.3c-31.583 31.585 18.179 79.771 48.978 48.978l100.401-100.401c7.892 5.24 21.979 3.84 28.996-2.935 8.979-8.98 8.979-23.591 0-32.571l-4.946-4.946 31.17-31.169c27.57 21.382 60.861 34.647 95.807 37.868 4.138.382 7.775-2.656 8.157-6.78.38-4.125-2.655-7.776-6.78-8.157-86.21-7.946-153.419-81.844-153.419-168.343 0-45.161 17.588-87.62 49.523-119.557 31.931-31.936 74.387-49.522 119.548-49.522s87.62 17.588 119.556 49.523 49.523 74.395 49.523 119.556-17.587 87.617-49.522 119.548c-27.859 27.858-64.757 45.188-103.896 48.795-4.125.381-7.16 4.032-6.78 8.157.359 3.891 3.628 6.813 7.46 6.813.23 0 .463-.011.697-.032 42.62-3.929 82.795-22.796 113.125-53.125 34.77-34.764 53.917-80.987 53.917-130.155-.001-49.169-19.149-95.396-53.917-130.165zm-279.784 333.606c-2.885 2.885-8.559 2.908-11.411.054l-42.466-42.466c-2.948-2.946-2.762-8.44.052-11.41 3.137-3.086 8.195-3.07 11.311.047l42.467 42.467c3.116 3.115 3.131 8.173.047 11.308zm-4.993-37.469-11.363-11.363 30.26-30.259c3.624 3.945 7.416 7.742 11.363 11.363z"/><path d="m318.045 170.127h51.25c4.143 0 7.5-3.357 7.5-7.5s-3.357-7.5-7.5-7.5h-51.25c-4.143 0-7.5 3.357-7.5 7.5s3.358 7.5 7.5 7.5z"/><path d="m358.586 232.251c-.934 2.502-1.448 5.208-1.448 8.031 0 12.699 10.332 23.031 23.031 23.031s23.031-10.332 23.031-23.031c0-2.824-.513-5.529-1.448-8.031h9.479c4.143 0 7.5-3.357 7.5-7.5s-3.357-7.5-7.5-7.5h-139.78c-4.429 0-8.031-3.603-8.031-8.031s3.603-8.03 8.031-8.03h124.249c4.143 0 7.5-3.357 7.5-7.5v-62.125c0-4.143-3.357-7.5-7.5-7.5h-101.217v-23.563c0-4.143-3.357-7.5-7.5-7.5h-31.063c-4.143 0-7.5 3.357-7.5 7.5s3.357 7.5 7.5 7.5h23.562v78.188h-8.031c-12.699 0-23.031 10.332-23.031 23.031s10.332 23.03 23.031 23.03h9.479c-.934 2.502-1.448 5.208-1.448 8.031 0 12.699 10.332 23.031 23.031 23.031s23.031-10.332 23.031-23.031c0-2.824-.513-5.529-1.448-8.031zm29.615-93.186v47.125h-93.718v-47.125zm0 101.218c0 4.429-3.603 8.031-8.031 8.031s-8.031-3.603-8.031-8.031 3.603-8.031 8.031-8.031 8.031 3.602 8.031 8.031zm-77.656 0c0 4.429-3.603 8.031-8.031 8.031s-8.031-3.603-8.031-8.031 3.603-8.031 8.031-8.031 8.031 3.602 8.031 8.031z"/></g></g></g></svg>